<?xml version="1.0" encoding="utf-8"?>
<!-- Generator: Adobe Illustrator 15.0.2, SVG Export Plug-In . SVG Version: 6.00 Build 0)  -->
<!DOCTYPE svg PUBLIC "-//W3C//DTD SVG 1.1//EN" "http://www.w3.org/Graphics/SVG/1.1/DTD/svg11.dtd">
<svg version="1.1" id="Layer_1" xmlns="http://www.w3.org/2000/svg" xmlns:xlink="http://www.w3.org/1999/xlink" x="0px" y="0px"
	 width="542.25px" height="139.061px" viewBox="0 0 542.25 139.061" enable-background="new 0 0 542.25 139.061"
	 xml:space="preserve">
<g>
	<path fill="#FFFFFF" d="M72.784,44.936v77.979h-24.92V44.936h-29.26v-20.16h83.72v20.16H72.784z"/>
	<path fill="#FFFFFF" d="M184.643,75.316v47.6h-24.22v-40.88c0-8.819-5.04-14.28-13.3-14.28c-9.52,0-15.4,7.56-15.4,17.92v37.239
		h-24.22V19.036h24.22v40.88c5.32-8.96,14.14-13.44,25.34-13.58C173.723,46.336,184.643,57.676,184.643,75.316z"/>
	<path fill="#FFFFFF" d="M226.642,25.756c0,7.56-5.32,12.88-12.74,12.88s-12.74-5.32-12.74-12.88c0-7.42,5.32-12.74,12.74-12.74
		S226.642,18.336,226.642,25.756z M201.722,122.915V47.456h24.08v75.459H201.722z"/>
	<path fill="#FFFFFF" d="M269.48,60.196c5.181-8.82,13.72-13.72,24.5-13.86v21.84c-14-1.26-23.24,5.32-24.5,15.96v38.779h-24.22
		V47.456h24.22V60.196z"/>
	<path fill="#FFFFFF" d="M381.058,122.915h-24.22v-9.939c-5.319,7-13.02,10.92-22.68,10.92c-21.28,0-35.28-15.68-35.28-39.061
		c0-23.1,13.86-38.359,34.721-38.359c9.939,0,17.92,3.92,23.239,10.92v-38.36h24.22V122.915z M356.838,85.396
		c0-11.62-6.72-19.6-16.8-19.6s-16.8,7.98-16.939,19.6c0.14,11.62,6.859,19.74,16.939,19.74S356.838,97.016,356.838,85.396z"/>
</g>
</svg>
