<?xml version="1.0" standalone="no"?>
<!DOCTYPE svg PUBLIC "-//W3C//DTD SVG 20010904//EN"
 "http://www.w3.org/TR/2001/REC-SVG-20010904/DTD/svg10.dtd">
<svg version="1.0" xmlns="http://www.w3.org/2000/svg"
 width="260.000000pt" height="260.000000pt" viewBox="0 0 260.000000 260.000000"
 preserveAspectRatio="xMidYMid meet">
<metadata>
Created by potrace 1.11, written by Peter Selinger 2001-2013
</metadata>
<g transform="translate(0.000000,260.000000) scale(0.100000,-0.100000)"
fill="#000000" stroke="none">
<path d="M2212 2587 c-12 -7 -19 -16 -16 -20 4 -4 2 -7 -5 -7 -7 0 -9 -5 -5
-12 4 -7 3 -8 -4 -4 -6 4 -9 13 -6 20 7 18 -12 30 -22 15 -5 -8 -3 -9 6 -4 8
5 11 4 6 -3 -4 -6 -13 -9 -21 -6 -8 4 -12 10 -9 15 3 5 -4 9 -16 9 -17 0 -19
-3 -11 -17 11 -20 -3 -53 -22 -53 -8 0 -9 3 -1 8 6 4 11 15 11 26 0 18 -1 18
-14 0 -15 -20 -22 -22 -32 -6 -4 6 -11 4 -19 -4 -11 -12 -10 -14 11 -10 14 2
24 -1 24 -8 0 -7 -12 -12 -26 -12 -19 1 -26 -4 -25 -16 1 -10 -3 -15 -8 -12
-5 3 -7 12 -4 20 3 7 1 16 -5 19 -5 4 -9 3 -8 -2 3 -18 -2 -33 -11 -33 -5 0
-10 7 -10 14 0 12 -6 13 -30 4 -17 -5 -36 -8 -43 -5 -8 3 -14 -3 -14 -15 -2
-16 1 -17 13 -7 8 6 17 9 20 6 3 -3 -4 -11 -16 -17 -18 -10 -20 -14 -9 -22 12
-8 11 -9 -1 -5 -8 2 -14 10 -13 16 5 19 -14 12 -31 -11 -9 -13 -14 -17 -11
-11 3 7 8 22 10 34 3 17 2 19 -10 9 -8 -7 -12 -16 -9 -21 9 -16 -19 -10 -40 8
-12 10 -16 11 -9 4 6 -7 9 -20 6 -27 -6 -17 -29 -18 -39 -2 -5 7 -3 8 6 3 9
-5 11 -4 6 3 -8 14 -36 16 -36 4 0 -4 5 -13 12 -20 9 -9 6 -12 -17 -10 -17 1
-35 5 -41 10 -16 12 -46 -2 -40 -19 6 -16 -24 -14 -36 2 -5 6 -8 6 -8 -2 0
-13 -17 -12 -40 2 -13 8 -13 7 -1 -9 8 -10 23 -15 33 -13 11 3 18 0 18 -8 0
-9 -8 -11 -22 -7 -19 4 -21 3 -13 -9 6 -8 0 -3 -12 11 -20 21 -25 23 -42 13
-17 -11 -19 -10 -15 1 3 8 1 17 -5 21 -9 5 -13 -7 -10 -31 0 -4 -5 -11 -13
-15 -11 -8 -11 -10 1 -18 9 -6 6 -8 -13 -8 -14 0 -24 4 -23 9 1 6 -6 12 -16
13 -14 3 -16 0 -7 -10 8 -10 8 -15 -1 -21 -8 -5 -9 -3 -4 7 8 12 6 12 -8 0 -9
-7 -14 -17 -11 -22 7 -13 -10 -11 -23 2 -8 8 -13 8 -18 -1 -4 -7 1 -14 14 -17
12 -3 21 -10 21 -16 0 -6 -3 -7 -7 -4 -4 4 -12 -6 -19 -23 -7 -16 -19 -30 -26
-29 -10 0 -10 2 0 6 21 8 13 21 -10 16 -20 -4 -21 -3 -5 7 9 6 17 16 17 23 0
8 -3 7 -9 -2 -5 -7 -14 -10 -20 -7 -15 10 -14 -17 2 -33 10 -10 8 -12 -8 -9
-13 2 -19 -2 -17 -11 3 -12 0 -12 -12 -2 -9 7 -14 17 -11 20 2 4 -2 8 -10 8
-11 0 -13 -8 -10 -29 5 -24 1 -30 -20 -38 -15 -6 -23 -14 -20 -20 3 -5 2 -10
-3 -10 -6 0 -13 7 -16 16 -5 14 -9 12 -26 -7 -11 -13 -19 -18 -20 -11 0 20
-16 14 -16 -7 0 -11 5 -17 10 -14 5 4 6 1 1 -6 -4 -7 -16 -11 -26 -8 -11 3
-17 1 -14 -3 3 -5 -1 -11 -7 -14 -7 -3 3 -3 22 0 33 4 34 3 15 -12 -11 -8 -32
-18 -47 -21 -23 -5 -28 -11 -29 -37 0 -27 -1 -29 -9 -10 -13 34 -34 42 -28 12
3 -19 1 -25 -11 -24 -18 1 -22 -25 -6 -36 6 -5 3 -8 -7 -8 -10 0 -18 7 -18 16
0 8 -5 12 -11 9 -7 -5 -4 -14 7 -26 16 -18 16 -19 -12 -19 -22 0 -26 3 -14 10
13 8 12 10 -2 10 -22 0 -23 -8 -1 -32 16 -18 16 -18 0 -12 -13 5 -16 2 -11
-12 5 -16 4 -16 -5 -4 -15 21 -45 1 -49 -34 -2 -15 -11 -29 -20 -32 -9 -3 -25
-10 -36 -16 -11 -6 -21 -6 -25 -1 -3 5 -17 7 -31 3 -25 -6 -25 -6 7 -18 40
-13 42 -18 6 -16 -33 2 -45 -4 -37 -17 4 -6 11 -6 20 2 12 10 13 8 8 -7 -4
-10 -11 -24 -16 -31 -6 -7 -7 -16 -4 -21 3 -5 -1 -9 -9 -9 -10 0 -11 5 -4 18
14 27 11 35 -6 13 -17 -23 -19 -54 -3 -54 6 0 8 -3 5 -6 -4 -4 -13 -2 -20 4
-10 9 -18 8 -33 -4 -10 -8 -13 -13 -6 -9 6 3 12 2 12 -3 0 -19 -14 -21 -32 -5
-15 14 -19 14 -16 3 2 -8 -2 -14 -9 -13 -6 1 -10 -4 -9 -11 3 -19 32 -46 41
-38 5 4 5 1 1 -5 -5 -10 -13 -9 -32 3 -23 16 -24 16 -24 -9 0 -34 -29 -51 -48
-29 -11 15 -12 14 -2 -6 15 -30 8 -37 -22 -21 -21 11 -22 11 -10 -4 15 -17 3
-50 -27 -75 -14 -12 -14 -13 5 -9 13 3 21 -1 21 -9 0 -7 -4 -11 -8 -9 -3 3
-12 -2 -18 -9 -10 -12 -8 -14 11 -9 15 3 11 -2 -12 -14 -23 -12 -38 -15 -43
-8 -5 6 -7 4 -4 -5 2 -8 -5 -26 -17 -39 -11 -13 -15 -21 -8 -17 6 4 12 2 12
-3 0 -6 5 -11 11 -11 8 0 8 4 0 13 -8 10 -7 14 2 14 9 0 14 -13 14 -33 0 -24
-4 -31 -15 -26 -11 4 -14 1 -9 -11 3 -9 2 -17 -4 -17 -6 0 -7 -6 -3 -12 9 -16
-26 11 -42 31 -7 9 -13 10 -17 4 -4 -6 0 -13 8 -17 22 -8 18 -31 -8 -50 -12
-9 -17 -15 -11 -12 6 3 11 -2 11 -10 0 -8 -6 -13 -13 -10 -16 6 -28 -10 -14
-19 6 -4 9 -23 7 -43 -4 -34 -7 -37 -35 -36 -17 0 -29 -4 -25 -9 3 -5 14 -6
25 -4 18 5 20 2 14 -25 -3 -17 -6 -34 -6 -39 0 -5 -7 -6 -15 -2 -10 3 -15 0
-13 -8 2 -8 -3 -13 -9 -11 -7 1 -13 -3 -13 -9 0 -6 7 -9 15 -6 8 4 17 2 20 -4
4 -5 1 -8 -6 -7 -6 2 -14 -3 -17 -11 -3 -9 0 -11 9 -6 8 5 11 4 6 -1 -5 -5
-16 -9 -25 -9 -12 0 -17 -9 -18 -32 -1 -18 4 -33 9 -33 6 0 7 -3 4 -6 -4 -4
-13 -1 -22 6 -12 10 -15 10 -15 -4 0 -9 -6 -16 -12 -16 -10 0 -10 -2 0 -9 10
-6 10 -10 -3 -21 -8 -7 -13 -22 -11 -36 4 -22 2 -24 -27 -20 -18 3 -26 3 -19
0 6 -3 12 -12 12 -20 0 -8 5 -14 10 -14 6 0 10 5 10 10 0 6 7 10 16 10 13 0
11 -5 -7 -25 -13 -13 -30 -25 -36 -25 -7 0 -13 -5 -13 -11 0 -5 -5 -7 -11 -3
-6 3 -4 -5 6 -19 12 -19 13 -27 4 -33 -7 -4 -9 -3 -5 4 3 6 2 13 -4 17 -5 3
-10 3 -10 -2 0 -4 -5 -15 -10 -23 -8 -13 -11 -12 -24 5 -9 11 -16 15 -16 8 0
-6 5 -15 11 -19 8 -4 7 -9 -2 -16 -11 -8 -11 -9 2 -5 9 3 22 1 30 -4 12 -7 12
-9 -1 -10 -8 -1 -19 -1 -24 0 -18 4 -37 -9 -30 -20 5 -8 9 -8 14 1 5 9 9 8 13
-2 4 -11 -4 -14 -34 -12 -41 2 -53 -10 -19 -21 27 -9 25 -23 -2 -21 l-23 1 -3
-252 -2 -253 1300 0 1300 0 0 265 c0 205 -3 265 -12 265 -10 0 -10 2 0 9 11 7
11 9 -1 14 -9 3 -18 -1 -21 -9 -3 -9 -10 -12 -16 -9 -6 4 -8 10 -6 14 3 4 -4
7 -14 8 -11 1 -22 -2 -25 -8 -3 -5 1 -6 9 -3 9 3 16 2 16 -4 0 -5 -13 -9 -30
-8 -16 1 -30 -1 -30 -6 0 -4 -5 -8 -11 -8 -5 0 -8 4 -5 8 2 4 1 14 -5 22 -7
12 -9 12 -9 -3 0 -17 -2 -17 -22 -3 -26 19 -38 20 -38 5 0 -5 4 -8 9 -4 5 3
12 2 15 -3 2 -4 -6 -8 -19 -8 -14 0 -21 5 -18 12 2 7 0 15 -6 19 -6 3 -11 -1
-11 -9 0 -27 -22 -30 -41 -5 -16 21 -21 23 -40 11 -17 -11 -20 -11 -13 0 6 10
5 11 -7 1 -12 -10 -18 -8 -29 7 -8 11 -20 20 -26 20 -6 0 -17 7 -24 15 -13 16
-35 21 -26 6 3 -5 -1 -12 -10 -15 -8 -3 -12 -2 -9 4 6 10 -17 40 -32 41 -4 1
-7 6 -5 13 2 7 -1 7 -9 -1 -18 -18 -34 -16 -20 1 10 12 8 13 -8 9 -12 -3 -21
-1 -21 5 0 6 -9 13 -19 17 -12 4 -18 12 -14 21 3 8 -1 14 -11 14 -20 0 -20 10
0 24 13 10 13 12 -5 12 -13 0 -21 -7 -21 -18 0 -9 -4 -20 -10 -23 -6 -4 -7 1
-3 11 4 12 3 15 -5 10 -12 -7 -14 -1 -15 41 0 12 -3 20 -8 17 -4 -2 -6 -11 -2
-19 3 -8 0 -15 -7 -15 -8 0 -11 9 -7 26 3 16 0 28 -9 31 -14 5 -16 53 -2 53 4
0 0 8 -9 18 -10 11 -22 17 -27 14 -5 -3 -2 -9 7 -14 9 -5 14 -17 12 -30 -5
-22 -13 -34 -19 -27 -11 11 -34 109 -26 109 5 0 7 7 4 15 -4 8 -9 13 -13 10
-4 -2 -7 15 -7 39 1 31 -3 42 -11 39 -7 -3 -10 -10 -6 -16 3 -5 2 -7 -4 -4
-16 10 -8 46 13 62 18 14 17 15 -11 9 -16 -3 -25 -2 -20 3 16 13 12 59 -4 55
-12 -3 -12 -1 -1 13 13 16 15 16 31 -3 16 -20 16 -20 17 11 0 17 -2 26 -6 20
-5 -8 -13 -9 -22 -3 -11 7 -12 10 -2 10 10 0 12 9 7 31 -5 21 -4 29 3 25 6 -4
9 4 7 20 -2 18 1 22 8 15 14 -14 27 -14 27 0 0 5 -5 7 -12 3 -8 -5 -9 -2 -5 9
3 10 2 17 -3 17 -6 0 -10 5 -10 10 0 6 6 10 13 9 24 -3 37 1 37 12 0 5 -5 7
-12 3 -6 -4 -8 -3 -5 3 4 6 -1 19 -9 29 -9 10 -13 13 -9 7 3 -7 1 -13 -4 -13
-18 0 -12 19 9 30 11 6 20 20 20 31 0 11 5 17 10 14 6 -4 8 -11 5 -16 -4 -5
-1 -9 4 -9 13 0 13 2 1 37 -9 25 -8 26 4 11 21 -28 35 -21 31 15 -4 28 -2 30
8 15 8 -10 18 -13 26 -9 10 6 9 10 -4 14 -13 5 -14 11 -5 27 8 15 8 20 -2 21
-7 0 -3 4 10 9 12 5 22 14 22 20 0 5 5 10 11 10 8 0 7 -5 -1 -15 -7 -9 -11
-18 -8 -21 3 -2 13 7 23 22 9 15 12 23 5 19 -8 -5 -11 -3 -8 5 2 7 15 15 28
17 30 4 46 18 31 27 -6 4 -11 2 -11 -3 0 -6 -4 -11 -8 -11 -5 0 -9 6 -9 13 0
7 13 13 29 14 29 1 61 20 54 32 -3 4 5 7 17 8 l22 1 -22 -15 c-13 -8 -23 -20
-23 -26 0 -6 11 0 24 12 14 13 22 29 20 36 -3 7 0 16 7 21 8 4 10 3 5 -4 -10
-17 3 -15 21 4 11 11 13 18 5 23 -6 4 0 11 14 18 22 10 24 10 14 -3 -9 -10 -9
-14 -1 -14 19 0 26 5 23 15 -1 6 4 2 11 -7 8 -10 17 -15 20 -12 3 4 0 13 -8
21 -18 18 -20 36 -2 30 6 -2 11 -10 9 -16 -1 -6 7 -11 19 -11 16 0 19 4 14 20
-4 11 -2 20 4 20 6 0 11 -5 11 -11 0 -8 5 -8 15 1 8 7 12 17 8 23 -3 6 -1 7 6
3 6 -4 9 -12 6 -17 -9 -14 5 -11 21 6 11 11 12 15 3 15 -7 0 -9 3 -6 6 4 4 13
1 21 -5 8 -7 20 -10 26 -6 5 3 10 2 10 -4 0 -5 7 -8 16 -7 17 3 35 26 28 37
-2 4 -1 10 4 13 4 2 9 -5 9 -16 3 -29 8 -32 40 -19 l28 11 -29 -6 c-26 -5 -28
-3 -17 10 14 16 64 19 54 3 -3 -5 3 -7 13 -5 11 2 18 9 17 16 -2 6 4 9 12 6
13 -5 15 40 15 360 l0 367 -169 -1 c-120 -1 -171 -5 -175 -13 -3 -9 -5 -8 -5
1 -1 15 -10 15 -39 -1z m-12 -61 c0 -3 -4 -8 -10 -11 -5 -3 -10 -1 -10 4 0 6
5 11 10 11 6 0 10 -2 10 -4z m-253 -62 c-3 -3 -12 -4 -19 -1 -8 3 -5 6 6 6 11
1 17 -2 13 -5z m-143 -39 c-4 -8 -8 -15 -10 -15 -2 0 -4 7 -4 15 0 8 4 15 10
15 5 0 7 -7 4 -15z m-375 -111 c-5 -6 -4 -15 3 -22 7 -7 10 -12 7 -12 -3 0
-15 10 -27 23 l-21 22 24 0 c15 0 20 -4 14 -11z m-309 -254 c0 -5 -10 -14 -22
-20 -21 -10 -21 -10 -6 3 10 8 15 17 11 20 -3 4 -1 7 5 7 7 0 12 -4 12 -10z
m-80 -74 c0 -3 -4 -8 -10 -11 -5 -3 -10 -1 -10 4 0 6 5 11 10 11 6 0 10 -2 10
-4z m1400 -146 c0 -5 -2 -10 -4 -10 -3 0 -8 5 -11 10 -3 6 -1 10 4 10 6 0 11
-4 11 -10z m-1603 -26 c-3 -3 -12 -4 -19 -1 -8 3 -5 6 6 6 11 1 17 -2 13 -5z
m1238 -112 c-3 -3 -11 0 -18 7 -9 10 -8 11 6 5 10 -3 15 -9 12 -12z m-75 -52
c0 -5 -5 -10 -11 -10 -5 0 -7 5 -4 10 3 6 8 10 11 10 2 0 4 -4 4 -10z m-1440
-162 c0 -6 -7 -4 -16 3 -15 12 -16 10 -9 -21 6 -33 6 -34 -8 -15 -10 14 -12
25 -6 37 9 18 39 14 39 -4z m-25 -98 c-3 -5 -12 -10 -18 -10 -7 0 -6 4 3 10
19 12 23 12 15 0z m-25 -24 c0 -2 -11 -6 -25 -8 -14 -3 -25 -1 -25 3 0 5 11 9
25 9 14 0 25 -2 25 -4z m-143 -251 c0 -8 -6 -16 -14 -19 -16 -7 -17 6 -1 22
15 15 15 15 15 -3z m-110 -301 c-3 -3 -12 -4 -19 -1 -8 3 -5 6 6 6 11 1 17 -2
13 -5z m1704 -127 c-10 -9 -11 -8 -5 6 3 10 9 15 12 12 3 -3 0 -11 -7 -18z
m-1784 -29 c-3 -8 -6 -5 -6 6 -1 11 2 17 5 13 3 -3 4 -12 1 -19z m-120 -174
c-3 -3 -12 -4 -19 -1 -8 3 -5 6 6 6 11 1 17 -2 13 -5z"/>
<path d="M1945 2539 c-4 -6 -5 -12 -2 -15 2 -3 7 2 10 11 7 17 1 20 -8 4z"/>
<path d="M1593 2445 c0 -8 4 -15 9 -15 4 0 8 7 8 15 0 8 -4 15 -8 15 -5 0 -9
-7 -9 -15z"/>
<path d="M1697 2453 c-4 -3 -7 -11 -7 -17 0 -6 5 -5 12 2 6 6 9 14 7 17 -3 3
-9 2 -12 -2z"/>
<path d="M1445 2390 c-3 -5 -1 -10 4 -10 6 0 11 5 11 10 0 6 -2 10 -4 10 -3 0
-8 -4 -11 -10z"/>
<path d="M1197 2271 c-4 -17 -3 -21 5 -13 5 5 8 16 6 23 -3 8 -7 3 -11 -10z"/>
<path d="M1341 2274 c0 -11 3 -14 6 -6 3 7 2 16 -1 19 -3 4 -6 -2 -5 -13z"/>
<path d="M1194 2228 c2 -7 -4 -18 -13 -25 -9 -7 -11 -13 -5 -13 6 0 19 10 30
22 10 12 14 18 7 15 -6 -4 -14 -2 -16 3 -3 6 -4 5 -3 -2z"/>
<path d="M1141 2174 c0 -11 3 -14 6 -6 3 7 2 16 -1 19 -3 4 -6 -2 -5 -13z"/>
<path d="M925 1989 c-4 -6 -5 -12 -2 -15 2 -3 7 2 10 11 7 17 1 20 -8 4z"/>
<path d="M825 1850 c-3 -5 -2 -10 4 -10 5 0 13 5 16 10 3 6 2 10 -4 10 -5 0
-13 -4 -16 -10z"/>
<path d="M661 1783 c-1 -6 -4 -20 -7 -30 -5 -17 -5 -17 6 0 6 10 9 23 6 30 -3
9 -5 9 -5 0z"/>
<path d="M690 1769 c0 -5 5 -7 10 -4 6 3 10 8 10 11 0 2 -4 4 -10 4 -5 0 -10
-5 -10 -11z"/>
<path d="M660 1718 c0 -23 17 -31 24 -12 4 9 4 19 1 22 -3 3 -5 -1 -5 -9 0
-11 -2 -11 -10 1 -8 13 -10 13 -10 -2z"/>
<path d="M545 1590 c-3 -5 -1 -10 4 -10 6 0 11 5 11 10 0 6 -2 10 -4 10 -3 0
-8 -4 -11 -10z"/>
<path d="M390 1424 c0 -2 9 -8 20 -14 15 -8 18 -8 14 3 -4 11 -34 21 -34 11z"/>
<path d="M1855 1410 c3 -5 2 -10 -4 -10 -6 0 -8 -7 -4 -15 7 -19 16 -12 20 15
2 11 -2 20 -8 20 -5 0 -7 -4 -4 -10z"/>
<path d="M402 1364 c-7 -8 -8 -14 -3 -14 10 0 25 19 20 25 -2 1 -10 -3 -17
-11z"/>
<path d="M400 1297 c0 -11 -5 -15 -11 -11 -8 4 -8 0 0 -15 7 -11 15 -21 18
-21 3 0 3 3 0 7 -4 3 -3 11 3 17 5 7 5 17 0 26 -8 12 -10 12 -10 -3z"/>
<path d="M1795 1120 c-3 -5 1 -10 10 -10 9 0 13 5 10 10 -3 6 -8 10 -10 10 -2
0 -7 -4 -10 -10z"/>
<path d="M266 1025 c7 -17 20 -20 28 -6 3 5 -1 12 -10 15 -22 9 -24 8 -18 -9z"/>
<path d="M236 955 c-9 -26 -7 -32 5 -12 6 10 9 21 6 23 -2 3 -7 -2 -11 -11z"/>
<path d="M193 923 c4 -3 1 -13 -6 -22 -11 -14 -10 -14 5 -2 16 12 16 31 1 31
-4 0 -3 -3 0 -7z"/>
<path d="M115 720 c3 -5 8 -10 11 -10 2 0 4 5 4 10 0 6 -5 10 -11 10 -5 0 -7
-4 -4 -10z"/>
<path d="M2043 685 c0 -8 4 -12 9 -9 5 3 6 10 3 15 -9 13 -12 11 -12 -6z"/>
<path d="M2460 560 c0 -5 5 -10 11 -10 5 0 7 5 4 10 -3 6 -8 10 -11 10 -2 0
-4 -4 -4 -10z"/>
</g>
</svg>
